<?xml version="1.0" encoding="UTF-8"?><svg id="Layer_2" xmlns="http://www.w3.org/2000/svg" viewBox="0 0 327.02 328.73"><defs><style>.cls-1{fill:#ebae4f;stroke:#ebae4f;stroke-miterlimit:10;}.cls-2{fill:#fff;stroke-width:0px;}</style></defs><g id="Layer_6"><path class="cls-2" d="M137.78,161.33l-100.33-15.78c-25.21-3.97-40.38-30.87-29.76-54.08.23-.5.47-.99.72-1.49h0c1.75-3.46,3.94-6.55,6.46-9.24,14.63-15.65,39.44-15.84,54.94-1.06l73.74,70.28-5.77,11.38Z"/><path class="cls-2" d="M143.35,180.2l-80.92,61.37c-20.34,15.42-50.24,7.7-59.61-16.04-.2-.51-.39-1.02-.57-1.55h0c-1.28-3.66-1.99-7.38-2.18-11.06-1.14-21.39,15.93-39.4,37.33-40.33l101.77-4.42,4.2,12.04Z"/><path class="cls-2" d="M159.06,188.97l-15.58,100.36c-3.92,25.22-30.79,40.44-54.03,29.87-.5-.23-.99-.46-1.49-.71h0c-3.46-1.75-6.56-3.93-9.26-6.44-15.67-14.6-15.91-39.41-1.17-54.94l70.13-73.88,11.39,5.75Z"/><path class="cls-2" d="M176.46,184.37l58.5,83.02c14.7,20.86,5.94,50.48-18.11,59.02-.52.18-1.04.36-1.56.52h0c-3.7,1.15-7.44,1.73-11.13,1.8-21.41.39-38.82-17.29-39-38.71l-.87-101.86,12.18-3.78Z"/><path class="cls-2" d="M185.78,168.98l99.75,19.08c25.07,4.79,39.34,32.18,27.97,55.04-.24.49-.5.98-.76,1.46h0c-1.87,3.4-4.15,6.42-6.76,9.03-15.13,15.16-39.94,14.53-54.95-.75l-71.38-72.67,6.14-11.18Z"/><path class="cls-2" d="M181.79,151.43l85.01-55.57c21.36-13.97,50.65-4.17,58.35,20.16.16.52.32,1.05.47,1.58h0c1.02,3.74,1.47,7.5,1.41,11.19-.36,21.42-18.64,38.19-40.05,37.63l-101.83-2.68-3.35-12.31Z"/><path class="cls-2" d="M166.73,141.58l22.55-99.03c5.67-24.89,33.54-38.19,55.98-26.03.48.26.96.53,1.43.82h0c3.33,1.98,6.27,4.37,8.79,7.07,14.62,15.65,13.12,40.42-2.67,54.89l-75.11,68.81-10.96-6.53Z"/><path class="cls-2" d="M151.86,143.24l-61.64-80.72c-15.49-20.29-7.87-50.21,15.84-59.66.51-.2,1.02-.4,1.54-.58h0c3.66-1.29,7.37-2.01,11.06-2.22,21.38-1.21,39.45,15.8,40.46,37.19l4.77,101.75-12.03,4.24Z"/><circle class="cls-1" cx="164.27" cy="162.97" r="38.21"/></g></svg>