<svg xmlns="http://www.w3.org/2000/svg" viewBox="0 0 83.53 198.26"><defs><style>.cls-1{fill:#133461;}.cls-2{fill:#f9b7a7;}.cls-3{fill:#a78641;}.cls-4{fill:#fff;}</style></defs><g id="Layer_2" data-name="Layer 2"><g id="BACKGROUND_2" data-name="BACKGROUND 2"><path class="cls-1" d="M42.49,172.87A23.65,23.65,0,0,1,31.84,161.3a5.63,5.63,0,0,1-.56-3.47c.47-1.94,2.6-3,4.55-3.4a18.92,18.92,0,0,1,16.57,4.38c2.85,2.58,8.64,11.47,5.93,15.61C55.93,178.08,45.41,174.41,42.49,172.87Z"/><path class="cls-1" d="M40.69,147.7a23.74,23.74,0,0,1-10.64-11.58,5.68,5.68,0,0,1-.57-3.46c.48-1.94,2.61-3,4.56-3.4a18.92,18.92,0,0,1,16.57,4.37c2.85,2.59,8.64,11.47,5.93,15.61C54.14,152.91,43.61,149.24,40.69,147.7Z"/><path class="cls-1" d="M41.51,123.43a22.19,22.19,0,0,1-9.62-10.64,5.31,5.31,0,0,1-.55-3.15c.4-1.76,2.28-2.66,4-3a16.92,16.92,0,0,1,14.81,4.17c2.56,2.39,7.83,10.53,5.47,14.25C53.54,128.33,44.12,124.87,41.51,123.43Z"/><path class="cls-1" d="M33,96A23.67,23.67,0,0,1,22.35,84.43,5.71,5.71,0,0,1,21.78,81c.48-1.94,2.61-3,4.56-3.4a18.93,18.93,0,0,1,16.57,4.38c2.85,2.58,8.64,11.47,5.93,15.61C46.44,101.21,35.91,97.54,33,96Z"/><path class="cls-1" d="M74.38,170a23.67,23.67,0,0,0,8.84-13,5.62,5.62,0,0,0,0-3.51c-.75-1.85-3-2.55-5-2.7a19,19,0,0,0-15.76,6.76c-2.43,3-6.86,12.61-3.58,16.31C61.84,177.14,71.72,172,74.38,170Z"/><path class="cls-1" d="M73.41,145.11a23.63,23.63,0,0,0,8.84-13,5.62,5.62,0,0,0,0-3.51c-.75-1.85-3-2.55-5-2.7a19,19,0,0,0-15.76,6.76c-2.43,3-6.86,12.62-3.58,16.31C60.87,152.24,70.75,147.06,73.41,145.11Z"/><path class="cls-1" d="M70.26,121.31a23.62,23.62,0,0,0,8.83-13,5.62,5.62,0,0,0,.06-3.51c-.76-1.85-3-2.55-5-2.69a18.9,18.9,0,0,0-15.76,6.76c-2.44,3-6.87,12.61-3.58,16.31C57.72,128.44,67.6,123.27,70.26,121.31Z"/><path class="cls-1" d="M64.34,92.06a23.7,23.7,0,0,0,8.83-13,5.62,5.62,0,0,0,0-3.51c-.75-1.85-3-2.55-5-2.7A18.89,18.89,0,0,0,52.47,79.6c-2.44,3-6.87,12.61-3.58,16.31C51.8,99.18,61.67,94,64.34,92.06Z"/><path class="cls-2" d="M24.35,27a.87.87,0,0,0-1.47.75C24,32.8,27,37.67,29,42.48,31.1,47.65,33.31,52.78,35.3,58A324.87,324.87,0,0,1,45.9,91,313.71,313.71,0,0,1,56,157.7a313.12,313.12,0,0,1-.81,38.38c-.23,2.73,4,3,4.24.25A311.47,311.47,0,0,0,40.79,61.26q-3.36-8.85-7.24-17.48C31.06,38.25,28.41,31.53,24.35,27Z"/><path class="cls-3" d="M41.83,19.07a82.39,82.39,0,0,1,3.87,9.44c.41,1.2.8,2.4,1.16,3.62,0,.13.08.26.11.39,1.68,5.6,3.27,11.44,2.82,17.31C49.38,55,47.18,60.21,43,63.21a14.08,14.08,0,0,1-15.86.08c-4.2-2.93-6.39-7.89-8.67-12.48-.84-1.68-1.71-3.42-2.62-5.18-.55-1-1.12-2.09-1.7-3.13A54.3,54.3,0,0,0,6.67,31.89c-3.14-3.33-5.12-9,.61-11.75,3.52-1.68,7,1.3,9.17,4.27a.45.45,0,0,0,.8-.33c-.21-1.72-1.16-3.14-1.45-4.8-.44-2.55.06-5.61,2.8-6.62a5.22,5.22,0,0,1,4.29.44,9.37,9.37,0,0,1,3.27,3.11.45.45,0,0,0,.8-.4,21.48,21.48,0,0,1-.85-2.53c-.65-2.52-.07-5.82,3.13-6.15a4.94,4.94,0,0,1,2.25.33C36.55,9.36,39.55,14.37,41.83,19.07Z"/><path class="cls-4" d="M45.7,28.51c.41,1.2.8,2.4,1.16,3.62,0,.13.08.26.11.39a8.1,8.1,0,0,1-3,2.08c-3.08,1.29-6,.21-8.36-1.74a9.06,9.06,0,0,1-5.38,6.58,8.92,8.92,0,0,1-7.87-.69,7.92,7.92,0,0,1-4.6,6.35,6.92,6.92,0,0,1-2,.53c-.55-1-1.12-2.09-1.7-3.13a4.55,4.55,0,0,0,2-.36C19,41,19.76,37.47,18.6,34.85a1.7,1.7,0,0,1,3-1.54c3.46,6.62,12.75,2.39,10.69-4.57-.54-1.87,2.15-2.51,3-1,1.81,2.95,5.27,5.51,8.54,3A5.89,5.89,0,0,0,45.7,28.51Z"/><path class="cls-1" d="M5.79,16.05A3.06,3.06,0,1,1,1.68,14.7,3.05,3.05,0,0,1,5.79,16.05Z"/><path class="cls-1" d="M18.06,7.76A3.06,3.06,0,1,1,14,6.42,3.07,3.07,0,0,1,18.06,7.76Z"/><path class="cls-1" d="M28.7,1.68A3.06,3.06,0,1,1,24.59.33,3.06,3.06,0,0,1,28.7,1.68Z"/><path class="cls-2" d="M49,91.89c-5.64-5.28-15-8.76-22.6-9.69a.53.53,0,0,0-.23,1A90.8,90.8,0,0,1,38,87.47c3.56,1.66,6.63,4,10,5.87A.89.89,0,0,0,49,91.89Z"/><path class="cls-2" d="M68.61,77.54c-7.77,2.2-15.83,9.61-20.18,16.25-.53.81.76,1.65,1.38.94a85.13,85.13,0,0,1,9.06-9.45c3.17-2.67,6.8-4.58,10.05-7.1A.36.36,0,0,0,68.61,77.54Z"/><path class="cls-2" d="M55.5,120.42c-4.53-4.89-12.94-9-19.65-8.88-.38,0-.54.62-.16.76,3.16,1.18,6.42,2,9.49,3.41,3.38,1.61,6.12,3.87,9.13,6A.89.89,0,0,0,55.5,120.42Z"/><path class="cls-2" d="M74.27,107c-7.61,2.73-15.17,9.12-20.08,15.46a.89.89,0,0,0,1.32,1.19,105.73,105.73,0,0,1,9.3-8.91c3.15-2.54,6.59-4.62,9.8-7.06C74.94,107.41,74.7,106.82,74.27,107Z"/><path class="cls-2" d="M58.46,145.41c-5.8-6-14.89-10.95-23.42-10.91a.52.52,0,0,0-.08,1c4.15,1.07,8.18,1.91,12.07,3.82a43.21,43.21,0,0,1,10.32,7.31C58.15,147.39,59.2,146.17,58.46,145.41Z"/><path class="cls-2" d="M77.62,130.87a42,42,0,0,0-20.44,14.8c-.58.79.47,1.79,1.16,1a67.49,67.49,0,0,1,9.31-8.89A80.08,80.08,0,0,1,78,131.63C78.43,131.4,78.07,130.73,77.62,130.87Z"/><path class="cls-2" d="M59,171.2c-5.24-6.3-14.36-10.39-22.43-10.87-.5,0-.52.73-.07.84a54.46,54.46,0,0,1,11.45,4c3.71,1.87,6.64,4.48,9.85,7C58.43,172.77,59.58,171.94,59,171.2Z"/><path class="cls-2" d="M78.64,156.81c-8.2,2-16.22,8.17-21,15-.68,1,.6,2.2,1.4,1.25a58.43,58.43,0,0,1,9.36-9.24A84.25,84.25,0,0,1,79,157.45C79.33,157.24,79,156.72,78.64,156.81Z"/></g></g></svg>