<svg xmlns="http://www.w3.org/2000/svg" viewBox="0 0 99.6 239.22"><defs><style>.cls-1{fill:#133461;}.cls-2{fill:#f9b7a7;}.cls-3{fill:#768fc7;}.cls-4{fill:#fff;}.cls-5{fill:#db5021;}</style></defs><g id="Layer_2" data-name="Layer 2"><g id="BACKGROUND_2" data-name="BACKGROUND 2"><path class="cls-1" d="M50,208.5a28.53,28.53,0,0,1-12.74-14,6.74,6.74,0,0,1-.65-4.18c.58-2.34,3.16-3.56,5.51-4.07A22.79,22.79,0,0,1,62,191.63c3.41,3.14,10.33,13.89,7,18.86C66.15,214.89,53.49,210.38,50,208.5Z"/><path class="cls-1" d="M48,178.14a28.53,28.53,0,0,1-12.74-14,6.81,6.81,0,0,1-.66-4.18c.59-2.34,3.17-3.56,5.52-4.07a22.8,22.8,0,0,1,19.94,5.41c3.41,3.14,10.33,13.9,7,18.86C64.19,184.53,51.53,180,48,178.14Z"/><path class="cls-1" d="M49.19,148.9A26.68,26.68,0,0,1,37.69,136a6.31,6.31,0,0,1-.64-3.81c.5-2.11,2.77-3.18,4.86-3.62a20.39,20.39,0,0,1,17.81,5.16c3.07,2.89,9.36,12.74,6.48,17.21C63.66,154.9,52.33,150.65,49.19,148.9Z"/><path class="cls-1" d="M39.15,115.77a28.53,28.53,0,0,1-12.74-14,6.83,6.83,0,0,1-.66-4.19c.59-2.33,3.16-3.55,5.52-4.06A22.8,22.8,0,0,1,51.21,98.9c3.41,3.14,10.33,13.89,7,18.86C55.32,122.16,42.65,117.65,39.15,115.77Z"/><path class="cls-1" d="M88.45,205.31A28.48,28.48,0,0,0,99.2,189.7a6.73,6.73,0,0,0,.09-4.23c-.89-2.23-3.6-3.09-6-3.29a22.84,22.84,0,0,0-19,8c-3,3.57-8.38,15.15-4.44,19.64C73.28,213.8,85.22,207.65,88.45,205.31Z"/><path class="cls-1" d="M87.48,175.29a28.61,28.61,0,0,0,10.75-15.61,6.84,6.84,0,0,0,.09-4.24c-.89-2.23-3.61-3.09-6-3.29a22.81,22.81,0,0,0-19,8c-3,3.56-8.38,15.14-4.44,19.63C72.31,183.77,84.25,177.62,87.48,175.29Z"/><path class="cls-1" d="M83.87,146.58A28.54,28.54,0,0,0,94.61,131a6.77,6.77,0,0,0,.1-4.24c-.9-2.23-3.61-3.09-6-3.29a22.81,22.81,0,0,0-19,8c-3,3.56-8.38,15.14-4.45,19.63C68.69,155.06,80.64,148.91,83.87,146.58Z"/><path class="cls-1" d="M77,111.26A28.53,28.53,0,0,0,87.71,95.65a6.81,6.81,0,0,0,.09-4.23c-.9-2.23-3.61-3.1-6-3.29a22.83,22.83,0,0,0-19,8c-3,3.57-8.38,15.15-4.44,19.63C61.79,119.75,73.73,113.6,77,111.26Z"/><path class="cls-2" d="M29.28,32.49a1,1,0,0,0-1.78.89c1.35,6.14,4.83,12,7.2,17.84,2.55,6.25,5.17,12.46,7.52,18.78a393,393,0,0,1,12.53,39.79,378.27,378.27,0,0,1,11.62,80.53,375.73,375.73,0,0,1-1.27,46.25c-.3,3.3,4.82,3.63,5.11.34C75.09,182,68,125.69,48.81,74q-4-10.69-8.58-21.13C37.28,46.14,34.14,38,29.28,32.49Z"/><path class="cls-3" d="M50.41,23.11A101.34,101.34,0,0,1,55,34.52c.49,1.45.95,2.91,1.38,4.37,0,.16.09.31.13.47,2,6.76,3.85,13.82,3.26,20.89-.53,6.21-3.23,12.49-8.32,16.08a17,17,0,0,1-19.12,0c-5-3.57-7.63-9.56-10.35-15.12-1-2-2-4.14-3.12-6.26-.65-1.26-1.33-2.53-2-3.79a65.8,65.8,0,0,0-8.9-12.84c-3.76-4-6.11-10.89.83-14.16,4.25-2,8.38,1.62,11,5.22a.54.54,0,0,0,1-.4c-.23-2.07-1.37-3.78-1.7-5.79-.52-3.08.11-6.76,3.41-8a6.31,6.31,0,0,1,5.17.56,11.29,11.29,0,0,1,3.92,3.79.54.54,0,0,0,1-.49,27.86,27.86,0,0,1-1-3c-.75-3,0-7,3.83-7.39A6,6,0,0,1,38,9C44.12,11.37,47.7,17.42,50.41,23.11Z"/><path class="cls-4" d="M55,34.52c.49,1.45.95,2.91,1.38,4.37,0,.16.09.31.13.47a9.86,9.86,0,0,1-3.59,2.49c-3.72,1.52-7.26.21-10.06-2.16a11,11,0,0,1-6.53,7.89,10.76,10.76,0,0,1-9.49-.9,9.56,9.56,0,0,1-5.59,7.62,8.67,8.67,0,0,1-2.39.62c-.65-1.26-1.33-2.53-2-3.79a5.53,5.53,0,0,0,2.37-.41c3.46-1.36,4.46-5.6,3.08-8.78-1.05-2.39,2.44-4.17,3.65-1.82,4.13,8,15.35,3,12.93-5.43-.64-2.25,2.61-3,3.66-1.25,2.15,3.58,6.3,6.7,10.27,3.75A7.21,7.21,0,0,0,55,34.52Z"/><circle class="cls-5" cx="3.69" cy="20.83" r="3.69" transform="translate(-17.44 21.92) rotate(-82.89)"/><path class="cls-5" d="M21.85,9.29a3.69,3.69,0,1,1-5-1.65A3.69,3.69,0,0,1,21.85,9.29Z"/><path class="cls-5" d="M34.72,2A3.69,3.69,0,1,1,29.77.39,3.69,3.69,0,0,1,34.72,2Z"/><path class="cls-2" d="M57.21,110.91c2.77-4.65,7.18-8.56,11.54-11.71,4.07-2.93,9.58-6.53,14.74-6.79a.6.6,0,0,1,.35,1.09c-4.1,2.86-9,4.39-13.17,7.34-4.56,3.25-7.88,7.29-11.63,11.35C58.2,113.1,56.54,112,57.21,110.91Z"/><path class="cls-2" d="M30.53,99.33c9.13.06,20.89,4.82,27.64,10.94a1.12,1.12,0,0,1-1.27,1.82c-4.37-2.24-8.32-5.07-12.87-7s-9.17-3.13-13.68-4.94C30,100,30.13,99.33,30.53,99.33Z"/><path class="cls-2" d="M63.93,146.81c6.16-8,16.85-16.52,26.88-18.76a.6.6,0,0,1,.51,1.06c-4.3,2.87-9,5-13.25,8-4.6,3.32-8.44,7.27-12.45,11.23A1.14,1.14,0,0,1,63.93,146.81Z"/><path class="cls-2" d="M41.15,134.31c9.14.19,17.93,5.31,24.44,11.45a1.23,1.23,0,0,1-1.65,1.81c-6.88-6.12-14.51-9.2-23-12.45A.43.43,0,0,1,41.15,134.31Z"/><path class="cls-2" d="M67.24,177.88c5.35-9.15,15.89-17.74,25.83-21.36a.66.66,0,0,1,.57,1.18c-4.65,3-9.3,5.73-13.52,9.33S72.63,174.94,69,179.08C68.18,180,66.62,178.93,67.24,177.88Z"/><path class="cls-2" d="M39.19,161.38c5.1.38,10.41,3.16,14.89,5.48a77.79,77.79,0,0,1,14.64,9.5c.86.73-.19,2.33-1.16,1.66a140,140,0,0,0-13.79-8.81C49,166.69,43.5,165.14,39,162.27,38.64,162.05,38.67,161.34,39.19,161.38Z"/><path class="cls-2" d="M68.37,204.55A57.59,57.59,0,0,1,94.2,187.09c.93-.3,1.29,1,.46,1.4a85.39,85.39,0,0,0-24.61,17.58A1.13,1.13,0,0,1,68.37,204.55Z"/><path class="cls-2" d="M40.61,192.29c5.17,0,10.86,2.66,15.38,5,5.09,2.59,10.57,5.89,14.42,10.17a.87.87,0,0,1-1.17,1.28c-4.71-3.35-9-7-14.18-9.67-4.7-2.44-10-3.64-14.59-6.11A.34.34,0,0,1,40.61,192.29Z"/></g></g></svg>