<svg xmlns="http://www.w3.org/2000/svg" viewBox="0 0 71.64 136.54"><defs><style>.cls-1{fill:#133461;}.cls-2{fill:#db5021;}.cls-3{fill:#f9b7a7;}</style></defs><g id="Layer_2" data-name="Layer 2"><g id="BACKGROUND_2" data-name="BACKGROUND 2"><path class="cls-1" d="M10.55,31.39a.09.09,0,0,1,.13-.06c1.6,1,2.38,3.15,3.3,4.77,1.26,2.24,2.54,4.46,3.87,6.66,2.75,4.53,5.67,9,8.83,13.21A168.18,168.18,0,0,0,46.1,77.33c-.23-.88-.46-1.76-.68-2.65q-3.81-15.33-6.19-31c-1.67-10.94-3.06-22.07-3-33.15a.79.79,0,0,1,1.58,0c1.32,10.94,2.22,21.9,4,32.79Q44.18,58.76,48,73.93c.83,3.32,1.72,6.62,2.64,9.91a54.62,54.62,0,0,0,7-18.11c1.58-8.1,1.13-16.08,1.35-24.26,0-.48.79-.66.88-.14,2.72,14.77.42,32.72-8.47,45.14a350.81,350.81,0,0,0,17.89,48c.71,1.56-1.57,3-2.3,1.43A344.42,344.42,0,0,1,47.12,81.21a1.24,1.24,0,0,1-.31-.18A132.16,132.16,0,0,1,25,57.59a135.58,135.58,0,0,1-8.74-13.27c-1.37-2.36-2.64-4.79-3.83-7.25C11.58,35.33,10.33,33.34,10.55,31.39Z"/><path class="cls-2" d="M41.34,23.51a2.73,2.73,0,0,0,1.55-3.26A3.34,3.34,0,0,0,47,20.06a2.58,2.58,0,0,0-.18-3.83,2.74,2.74,0,0,0,3-2.16A2.76,2.76,0,0,0,47.66,11a3.39,3.39,0,0,0,1.08-4A3.41,3.41,0,0,0,45,5.09,3,3,0,0,0,43.65,2a3,3,0,0,0-3.41.28A3.33,3.33,0,0,0,36.39.07a4.32,4.32,0,0,0-3.14,3.39,3,3,0,0,0-4.09.1,4,4,0,0,0-.74,4.22,3.36,3.36,0,0,0-3.67,2.54,3.37,3.37,0,0,0,2.35,3.8,3,3,0,0,0,3,5.24,1.78,1.78,0,0,0,.27,2.78,2.52,2.52,0,0,0,3-.48,2.37,2.37,0,0,0,1.94,2.54c1.57.24,1.77-1.52,2.76-1.63S39.81,24.1,41.34,23.51Z"/><path class="cls-3" d="M41.59,5.15c.64,0,2,.86,1.31,1.59a.15.15,0,0,1-.19,0c-.37-.25-.48-.73-1-.82s-.87.5-.84,1a.37.37,0,0,1-.72.11A1.55,1.55,0,0,1,41.59,5.15Z"/><path class="cls-3" d="M38.41,9.46a1.52,1.52,0,0,1,1.85,1.29c0,.25-.34.45-.53.24s-.55-.72-1.06-.72a.91.91,0,0,0-.85,1c0,.39-.65.54-.72.11A1.72,1.72,0,0,1,38.41,9.46Z"/><path class="cls-3" d="M35,6.4A1.79,1.79,0,0,1,36.67,8c0,.23-.31.3-.42.12a1.89,1.89,0,0,0-1-1c-.47-.13-1.11.13-1,.71a.39.39,0,1,1-.77.12A1.46,1.46,0,0,1,35,6.4Z"/><path class="cls-3" d="M31.59,11.33a1.52,1.52,0,0,1,1.84,1.35.26.26,0,0,1-.47.14,1.17,1.17,0,0,0-1.26-.66c-.56.19-.52.71-.7,1.16a.37.37,0,0,1-.64,0C29.9,12.52,30.81,11.5,31.59,11.33Z"/><path class="cls-3" d="M44.53,11.25a1.36,1.36,0,0,1,1.65,1.29c0,.23-.33.36-.45.14a1,1,0,0,0-1-.6c-.45.1-.55.57-.51,1s-.7.58-.85.13A1.55,1.55,0,0,1,44.53,11.25Z"/><path class="cls-3" d="M36.81,15.27a1.4,1.4,0,0,1,1.41,1.53.28.28,0,0,1-.55,0,.75.75,0,0,0-.83-.69c-.45.11-.44.53-.64.85a.37.37,0,0,1-.63,0C35.06,16.23,36.07,15.3,36.81,15.27Z"/><path class="cls-3" d="M29.66,18a1.66,1.66,0,0,1,1.71-1.3,1.47,1.47,0,0,1,1.36,1.54.2.2,0,0,1-.38.06c-.27-.87-1.57-1.09-1.81-.09A.45.45,0,0,1,29.66,18Z"/><path class="cls-3" d="M41.69,16.09c.78.05,1.65.9,1.3,1.73a.27.27,0,0,1-.47,0c-.2-.38-.35-.87-.87-.89s-.64.49-.84.86a.41.41,0,0,1-.75-.08C39.79,16.83,40.89,16,41.69,16.09Z"/><path class="cls-2" d="M16.65,47.89a2.72,2.72,0,0,0,1.55-3.25,3.33,3.33,0,0,0,4.06-.2,2.57,2.57,0,0,0-.19-3.82A2.65,2.65,0,0,0,23,35.4a3.31,3.31,0,0,0-2.62-5.92,3,3,0,0,0-4.8-2.84,3.34,3.34,0,0,0-3.85-2.19,4.33,4.33,0,0,0-3.14,3.39A3,3,0,0,0,4.47,28a4,4,0,0,0-.74,4.22A3.36,3.36,0,0,0,.06,34.71,3.36,3.36,0,0,0,2.41,38.5a3.14,3.14,0,0,0-.9,4,3.13,3.13,0,0,0,3.9,1.24,1.79,1.79,0,0,0,.27,2.79,2.54,2.54,0,0,0,3-.49,2.38,2.38,0,0,0,1.94,2.55c1.57.23,1.77-1.52,2.76-1.64S15.12,48.48,16.65,47.89Z"/><path class="cls-3" d="M16.89,29.53c.64,0,2,.86,1.32,1.59a.17.17,0,0,1-.19,0c-.37-.26-.49-.74-1-.82s-.87.5-.84,1a.37.37,0,0,1-.72.11A1.55,1.55,0,0,1,16.89,29.53Z"/><path class="cls-3" d="M13.71,33.84c.79-.17,1.88.4,1.86,1.29,0,.25-.34.46-.53.24s-.55-.72-1.06-.71-.84.49-.85,1-.65.54-.72.11A1.73,1.73,0,0,1,13.71,33.84Z"/><path class="cls-3" d="M10.27,30.78A1.79,1.79,0,0,1,12,32.41c0,.23-.31.31-.41.13a1.91,1.91,0,0,0-1-1c-.47-.13-1.11.14-1,.72a.39.39,0,1,1-.76.12A1.47,1.47,0,0,1,10.27,30.78Z"/><path class="cls-3" d="M6.9,35.71a1.54,1.54,0,0,1,1.84,1.36.26.26,0,0,1-.47.14A1.17,1.17,0,0,0,7,36.55c-.56.18-.52.71-.7,1.15a.37.37,0,0,1-.64,0C5.21,36.9,6.12,35.88,6.9,35.71Z"/><path class="cls-3" d="M19.84,35.64a1.36,1.36,0,0,1,1.65,1.28.25.25,0,0,1-.46.14,1,1,0,0,0-1-.6c-.45.1-.55.58-.51,1s-.7.59-.85.13A1.54,1.54,0,0,1,19.84,35.64Z"/><path class="cls-3" d="M12.11,39.66a1.4,1.4,0,0,1,1.42,1.52.28.28,0,0,1-.55,0,.74.74,0,0,0-.83-.68c-.45.11-.44.53-.64.85a.37.37,0,0,1-.64,0C10.37,40.61,11.38,39.69,12.11,39.66Z"/><path class="cls-3" d="M5,42.34A1.68,1.68,0,0,1,6.68,41,1.48,1.48,0,0,1,8,42.58a.2.2,0,0,1-.38.06c-.27-.87-1.57-1.09-1.81-.08A.45.45,0,0,1,5,42.34Z"/><path class="cls-3" d="M17,40.47c.78.05,1.65.91,1.3,1.73a.28.28,0,0,1-.48,0c-.19-.38-.34-.86-.86-.89s-.64.49-.84.87a.41.41,0,0,1-.75-.08C15.1,41.21,16.2,40.42,17,40.47Z"/><path class="cls-2" d="M63.15,62.63a2.73,2.73,0,0,0,1.56-3.25,3.33,3.33,0,0,0,4.05-.2,2.58,2.58,0,0,0-.18-3.83,2.64,2.64,0,0,0,.9-5.21,3.32,3.32,0,0,0-2.62-5.93,3,3,0,0,0-4.8-2.83,3.35,3.35,0,0,0-3.85-2.19,4.3,4.3,0,0,0-3.14,3.39,3,3,0,0,0-4.1.1,4,4,0,0,0-.73,4.22,3.24,3.24,0,0,0-1.33,6.34,3,3,0,0,0,3,5.24,1.78,1.78,0,0,0,.27,2.78,2.52,2.52,0,0,0,3-.48,2.39,2.39,0,0,0,1.94,2.55c1.57.23,1.78-1.53,2.76-1.64S61.63,63.22,63.15,62.63Z"/><path class="cls-3" d="M63.4,44.27c.64,0,2,.86,1.32,1.59a.17.17,0,0,1-.2,0c-.37-.25-.48-.73-1-.81s-.86.5-.83,1a.37.37,0,0,1-.73.11A1.56,1.56,0,0,1,63.4,44.27Z"/><path class="cls-3" d="M60.22,48.58c.78-.18,1.88.4,1.86,1.29,0,.25-.35.45-.54.24s-.55-.72-1.06-.72-.83.5-.85,1-.65.54-.72.11A1.74,1.74,0,0,1,60.22,48.58Z"/><path class="cls-3" d="M56.77,45.52a1.79,1.79,0,0,1,1.71,1.63c0,.23-.31.3-.42.12a1.86,1.86,0,0,0-1-1c-.46-.13-1.11.13-1,.71a.39.39,0,1,1-.76.12A1.45,1.45,0,0,1,56.77,45.52Z"/><path class="cls-3" d="M53.41,50.45a1.52,1.52,0,0,1,1.84,1.35.26.26,0,0,1-.48.14,1.14,1.14,0,0,0-1.26-.65c-.56.18-.52.7-.7,1.15a.37.37,0,0,1-.63,0C51.72,51.64,52.62,50.62,53.41,50.45Z"/><path class="cls-3" d="M66.34,50.37A1.38,1.38,0,0,1,68,51.66a.25.25,0,0,1-.46.14c-.2-.34-.59-.7-1-.6s-.55.57-.51,1-.71.58-.86.13A1.57,1.57,0,0,1,66.34,50.37Z"/><path class="cls-3" d="M58.62,54.4A1.38,1.38,0,0,1,60,55.92a.28.28,0,0,1-.55,0,.74.74,0,0,0-.83-.69c-.45.12-.44.53-.64.86a.37.37,0,0,1-.63,0C56.88,55.35,57.89,54.42,58.62,54.4Z"/><path class="cls-3" d="M51.47,57.08a1.67,1.67,0,0,1,1.71-1.3,1.47,1.47,0,0,1,1.36,1.54.2.2,0,0,1-.38.06c-.26-.87-1.57-1.09-1.81-.09A.45.45,0,0,1,51.47,57.08Z"/><path class="cls-3" d="M63.5,55.21c.79,0,1.65.91,1.31,1.73a.28.28,0,0,1-.48,0c-.19-.38-.35-.87-.87-.89s-.63.49-.84.86a.41.41,0,0,1-.75-.08C61.6,56,62.7,55.15,63.5,55.21Z"/></g></g></svg>