<svg xmlns="http://www.w3.org/2000/svg" viewBox="0 0 99.89 239.1"><defs><style>.cls-1{fill:#768fc7;}.cls-2{fill:#133461;}.cls-3{fill:#db5021;}.cls-4{fill:#fff;}.cls-5{fill:#f9b7a7;}</style></defs><g id="Layer_2" data-name="Layer 2"><g id="BACKGROUND_2" data-name="BACKGROUND 2"><path class="cls-1" d="M49.57,208.43a28.57,28.57,0,0,0,12.76-14,6.81,6.81,0,0,0,.66-4.18c-.58-2.34-3.15-3.56-5.5-4.08a22.83,22.83,0,0,0-20,5.37c-3.42,3.14-10.35,13.88-7.06,18.85C33.39,214.78,46.06,210.3,49.57,208.43Z"/><path class="cls-1" d="M51.59,178.08a28.57,28.57,0,0,0,12.76-14,6.81,6.81,0,0,0,.66-4.18c-.58-2.34-3.15-3.56-5.51-4.07a22.75,22.75,0,0,0-19.94,5.37c-3.42,3.13-10.35,13.87-7.06,18.84C35.41,184.43,48.07,180,51.59,178.08Z"/><path class="cls-1" d="M52.94,149.05c5.31-2.84,8.88-4.76,12.76-14a6.75,6.75,0,0,0,.67-4.18c-.59-2.34-3.16-3.56-5.51-4.08a22.84,22.84,0,0,0-20,5.37C37.5,135.29,30.56,146,33.85,151,36.76,155.4,49.43,150.92,52.94,149.05Z"/><path class="cls-1" d="M59.91,117.05a28.53,28.53,0,0,0,12.76-14,6.8,6.8,0,0,0,.67-4.18c-.59-2.33-3.16-3.55-5.51-4.07a22.84,22.84,0,0,0-19.95,5.37C44.47,103.29,37.53,114,40.82,119,43.73,123.41,56.4,118.93,59.91,117.05Z"/><path class="cls-1" d="M11.11,205.17A28.55,28.55,0,0,1,.39,189.54a6.81,6.81,0,0,1-.08-4.23c.9-2.24,3.61-3.09,6-3.28a22.77,22.77,0,0,1,19,8.06c3,3.57,8.35,15.16,4.41,19.63C26.26,213.68,14.33,207.5,11.11,205.17Z"/><path class="cls-1" d="M12.14,175.15A28.54,28.54,0,0,1,1.42,159.52a6.74,6.74,0,0,1-.08-4.23c.9-2.24,3.61-3.09,6-3.28a22.79,22.79,0,0,1,19,8.06c3,3.57,8.35,15.16,4.41,19.63C27.29,183.66,15.36,177.48,12.14,175.15Z"/><path class="cls-1" d="M15.14,147.77A28.54,28.54,0,0,1,4.43,132.14a6.74,6.74,0,0,1-.09-4.23c.9-2.24,3.61-3.09,6-3.28a22.81,22.81,0,0,1,19,8.06c2.95,3.57,8.34,15.16,4.4,19.63C30.29,156.28,18.36,150.1,15.14,147.77Z"/><path class="cls-1" d="M22.11,112.47A28.51,28.51,0,0,1,11.4,96.85a6.81,6.81,0,0,1-.09-4.23c.9-2.24,3.61-3.09,6-3.28a22.81,22.81,0,0,1,19,8C39.3,101,44.7,112.55,40.76,117,37.27,121,25.34,114.81,22.11,112.47Z"/><path class="cls-2" d="M70.6,32.49a1,1,0,0,1,1.77.89c-1.36,6.13-4.85,12-7.23,17.83C62.58,57.45,60,63.65,57.58,70A392,392,0,0,0,45,109.73,373.53,373.53,0,0,0,34.4,236.46c.29,3.3-4.83,3.62-5.11.33C24.51,181.89,31.7,125.6,51,73.91Q55,63.23,59.6,52.8C62.57,46.12,65.73,38,70.6,32.49Z"/><path class="cls-3" d="M49.49,23.07a101.37,101.37,0,0,0-4.61,11.4c-.49,1.45-1,2.9-1.38,4.37l-.14.47c-2,6.75-3.87,13.81-3.29,20.88.52,6.21,3.2,12.49,8.28,16.08a17,17,0,0,0,19.12,0c5-3.56,7.65-9.55,10.38-15.09,1-2,2-4.14,3.12-6.25.66-1.27,1.34-2.53,2-3.79a65.38,65.38,0,0,1,8.92-12.83c3.77-4,6.13-10.87-.8-14.16-4.25-2-8.38,1.61-11,5.2a.54.54,0,0,1-1-.39c.24-2.08,1.37-3.78,1.71-5.79.52-3.08-.1-6.76-3.4-8a6.28,6.28,0,0,0-5.17.56,11.32,11.32,0,0,0-3.92,3.77.54.54,0,0,1-1-.48,26.55,26.55,0,0,0,1-3c.76-3.05.06-7-3.81-7.4A6.14,6.14,0,0,0,61.88,9C55.8,11.34,52.2,17.39,49.49,23.07Z"/><path class="cls-4" d="M44.88,34.47c-.49,1.45-1,2.9-1.38,4.37l-.14.47A9.86,9.86,0,0,0,47,41.8c3.71,1.53,7.26.22,10.06-2.14a11,11,0,0,0,6.52,7.9A10.8,10.8,0,0,0,73,46.68a9.54,9.54,0,0,0,5.57,7.62,8.72,8.72,0,0,0,2.38.64c.66-1.27,1.34-2.53,2-3.79a5.58,5.58,0,0,1-2.38-.42c-3.45-1.37-4.44-5.6-3-8.78,1-2.39-2.44-4.18-3.65-1.83-4.14,8-15.36,3-12.92-5.45.65-2.25-2.6-3-3.66-1.25C55.2,37,51,40.1,47.08,37.15A7.32,7.32,0,0,1,44.88,34.47Z"/><path class="cls-5" d="M92.9,19.23a3.69,3.69,0,1,0,4.95-1.65A3.7,3.7,0,0,0,92.9,19.23Z"/><path class="cls-5" d="M78.07,9.31a3.69,3.69,0,1,0,5-1.64A3.69,3.69,0,0,0,78.07,9.31Z"/><path class="cls-5" d="M65.21,2a3.69,3.69,0,1,0,5-1.65A3.69,3.69,0,0,0,65.21,2Z"/><path class="cls-2" d="M42.72,110.13c9.57-1.86,17.85-5.55,26.47-10a.44.44,0,0,1,.48.74c-7.65,5.78-17.49,9.19-26.84,10.88C41.77,112,41.69,110.33,42.72,110.13Z"/><path class="cls-2" d="M18.57,93.43c6.84,6.95,13.54,13,22.59,16.94,1,.45.24,2-.77,1.54-8.64-3.82-17.33-9.83-22.38-18C17.79,93.57,18.26,93.12,18.57,93.43Z"/><path class="cls-2" d="M35.11,141.12c9.78-1.36,17.93-4.85,26.62-9.38a.53.53,0,0,1,.57.89c-7.52,5.92-17.67,9.12-27.09,10.16C34.13,142.91,34.05,141.27,35.11,141.12Z"/><path class="cls-2" d="M8.52,129.08C16,136.49,24,141.91,34.31,144.44c1.12.27.78,2-.34,1.75C23.86,144,13.78,138.26,8,129.54,7.75,129.21,8.23,128.78,8.52,129.08Z"/><path class="cls-2" d="M32.47,172.65a88.5,88.5,0,0,0,14.09-4.59c4.9-2.1,9.33-5,14.1-7.29.3-.14.72.22.43.5-7.33,6.87-18.45,10.84-28.08,13C31.94,174.52,31.39,172.91,32.47,172.65Z"/><path class="cls-2" d="M6.91,157.54c7.79,5.62,15.6,10.54,24.66,13.88,1.11.41.28,2.08-.84,1.66-8.89-3.39-17.62-8.12-24.5-14.78A.51.51,0,0,1,6.91,157.54Z"/><path class="cls-2" d="M30.55,202.46c4.53-1.62,9.16-2.64,13.59-4.61,4.74-2.11,8.8-5.16,13.33-7.59.42-.22.93.27.57.66-3.3,3.52-8,6-12.26,8.09-4.57,2.22-9.83,4.47-14.94,5A.77.77,0,0,1,30.55,202.46Z"/><path class="cls-2" d="M6,187.13c4,3,7.56,6.28,11.8,8.91a84.53,84.53,0,0,0,12.26,6c.89.37.38,1.94-.57,1.64-8.73-2.81-18.51-8.55-24.06-16C5.14,187.25,5.67,186.88,6,187.13Z"/></g></g></svg>