<svg xmlns="http://www.w3.org/2000/svg" viewBox="0 0 146 249.41"><defs><style>.cls-1{fill:#768fc7;}.cls-2{fill:#133461;}.cls-3{fill:#f9b7a7;}.cls-4{fill:#db5021;}.cls-5{fill:#f5d60a;}.cls-6{fill:#fff;}</style></defs><g id="Layer_2" data-name="Layer 2"><g id="BACKGROUND_2" data-name="BACKGROUND 2"><path class="cls-1" d="M83.87,183.7A13.94,13.94,0,0,1,87.81,178c1.86-1.39,4.63-1.83,6.49-.44,2.28,1.71,2.22,5.08,1.93,7.91a93.53,93.53,0,0,1,6.45-17.38,16.46,16.46,0,0,1,3.45-5.15,6.4,6.4,0,0,1,5.72-1.75c2,.53,3.59,2.73,3,4.72A28.16,28.16,0,0,1,131,140.69c3.78-1.72,8.56-2.45,11.84.1,4.11,3.2,3.6,9.52,2.15,14.52A70.82,70.82,0,0,1,137.69,172c1.82-1.51,4.79-1,6.37.77a7.33,7.33,0,0,1,1.3,6.69,16.26,16.26,0,0,1-3.5,6.09,42.14,42.14,0,0,1-17.62,12.4c2.43-.95,5,1.81,4.87,4.42s-2.09,4.74-4.09,6.42c-9.66,8.11-23.15,10.73-35.63,8.87C71.7,215,79,194.52,83.87,183.7Z"/><path class="cls-1" d="M46.26,189.54a12.9,12.9,0,0,1-5.35-.78,5.23,5.23,0,0,1-3.28-4c-.34-3.24,3.08-5.44,4.75-8.23a32.21,32.21,0,0,1-16.94,2.17A17.07,17.07,0,0,1,17,175.41a8.88,8.88,0,0,1-3.42-8.07A30.84,30.84,0,0,1,23,161.91c-3.93,1-8-.82-11.57-2.67a31.34,31.34,0,0,1-7.56-4.9A11.54,11.54,0,0,1,0,146.42a3.26,3.26,0,0,1,.48-2,3.52,3.52,0,0,1,1.69-1.09,17.14,17.14,0,0,1,7.37-1A17.63,17.63,0,0,1,3.4,131.65a43.24,43.24,0,0,1-.19-12.55c.47-4.9,1.91-10.73,6.6-12.24,3.72-1.2,7.64,1.06,10.63,3.58a47.61,47.61,0,0,1,11.45,14.25c-.15-2.84.63-6.09,3.13-7.44s5.76-.18,7.6,2,2.57,5,3.09,7.81a82.16,82.16,0,0,1,1.37,12.6l1.41-9.15a7.63,7.63,0,0,1,1.33-3.83A4.81,4.81,0,0,1,55,125.49a8.9,8.9,0,0,1,4.23,3.64c4.24,6.38,3.34,14.75,5.18,22.18,2.06-2,2.77-5.51,5.5-6.3a4.73,4.73,0,0,1,4.83,2,12.87,12.87,0,0,1,1.91,5.17A114.25,114.25,0,0,1,78.84,169c.33,6,.33,7.68-4.6,11.23A49.66,49.66,0,0,1,46.26,189.54Z"/><path class="cls-2" d="M80.66,66.68a2.09,2.09,0,0,0-4.17.22c-.74,11.66-.25,23.47-.22,35.14s0,23.41,0,35.12q-.09,34.8-1,69.6-.54,19.92-1.35,39.84c-.16,4,6,3.62,6.18-.33,1.83-46.55,2.8-93.19,2-139.78C81.88,93.28,82.08,79.83,80.66,66.68Z"/><path class="cls-3" d="M54.57,26.17c-1-2.71-1.92-5.51-1.74-8.37S54.61,12,57.32,11s6.27,1.09,6.14,4c-2.13-4.71.4-11.16,5.38-12.58S79.62,5.91,78.51,11a8.27,8.27,0,0,1,1.16-8.72A6.77,6.77,0,0,1,88.11.94c2.59,1.69,3.56,8.72,1.58,11.11C89.89,9.2,93.32,4.5,96,5.51s4.23,3.92,4.48,6.76-.54,5.65-1.34,8.39L91.76,46.05c-1.12,3.85-2.27,7.78-4.51,11.11s-5.77,6.05-9.77,6.27a11.92,11.92,0,0,1-9.65-4.66c-3-3.74-4-9.06-5.86-13.47C59.36,39,56.87,32.61,54.57,26.17Z"/><path class="cls-3" d="M76.72,107c-.57,2.82-1.2,5.71-2.83,8.06s-4.53,4.08-7.34,3.48-4.8-4.17-3.21-6.56c-.61,5.13-6.1,9.35-11.1,8s-7.43-8.56-3.87-12.31a8.28,8.28,0,0,1-5.49,6.87A6.78,6.78,0,0,1,35,111.32c-1.35-2.79,1.45-9.3,4.38-10.33-1.64,2.33-7,4.6-8.77,2.36s-1.59-5.54-.35-8.1,3.39-4.57,5.48-6.5l19.42-18c2.94-2.72,5.95-5.49,9.59-7.19s8.06-2.21,11.61-.33a11.9,11.9,0,0,1,5.85,9C82.84,77,81,82.1,80.26,86.81,79.23,93.57,78.07,100.32,76.72,107Z"/><path class="cls-3" d="M83.88,106.64c.86,2.73,1.8,5.54,3.68,7.71s4.93,3.57,7.66,2.67,4.33-4.66,2.49-6.87c1.15,5,7.07,8.65,11.89,6.77s6.48-9.3,2.53-12.65a8.29,8.29,0,0,0,6.2,6.24,6.77,6.77,0,0,0,7.51-4.06c1-2.92-2.43-9.1-5.45-9.8,1.88,2.14,7.45,3.82,9,1.4s1-5.68-.51-8.09-3.86-4.18-6.14-5.88L101.47,68.31c-3.22-2.39-6.51-4.82-10.3-6.12s-8.25-1.33-11.58.91a11.93,11.93,0,0,0-4.87,9.55c-.14,4.8,2.26,9.67,3.48,14.27C80,93.54,81.81,100.11,83.88,106.64Z"/><path class="cls-3" d="M36,74.88c-2.86-.14-5.81-.34-8.39-1.6S22.85,69.41,23,66.55s3.41-5.37,6-4.16c-5.17.17-10.17-4.64-9.58-9.78s7.35-8.63,11.6-5.67a8.27,8.27,0,0,1-7.61-4.4,6.77,6.77,0,0,1,2-8.3c2.56-1.75,9.42,0,10.87,2.78-2.55-1.27-5.59-6.24-3.64-8.31s5.24-2.41,8-1.56,5,2.67,7.24,4.45L68.54,48.11c3.14,2.51,6.32,5.07,8.55,8.41S80.47,64.16,79.15,68a11.92,11.92,0,0,1-8,7.13c-4.61,1.36-9.93.28-14.69.27C49.63,75.34,42.79,75.21,36,74.88Z"/><path class="cls-3" d="M106.17,28.94c2.12-1.94,4.33-3.9,7-4.84s6.07-.61,8,1.53,1.41,6.2-1.28,7.19c3.52-3.79,10.44-3.95,13.68.09s.95,11.3-4.15,12.22a8.29,8.29,0,0,1,8.49-2.3,6.78,6.78,0,0,1,4.47,7.28c-.55,3-6.66,6.66-9.63,5.75,2.7-.91,8.37.43,8.47,3.28s-2,5.41-4.5,6.75-5.43,1.68-8.26,2l-26.26,3c-4,.46-8,.92-12,.15s-7.81-3-9.57-6.59a11.94,11.94,0,0,1,.57-10.69c2.28-4.23,6.79-7.25,10.15-10.62C96.21,38.32,101.12,33.55,106.17,28.94Z"/><path class="cls-4" d="M49.21,50.18a15.75,15.75,0,0,1-4.54-4.44c-1.08-1.85-1.32-4.34,0-6s4.33-1.92,5.44-.09c-3.27-2-4.39-7.06-1.9-10s8.1-2.32,9.5,1.26A6.15,6.15,0,0,1,54.78,25a5,5,0,0,1,4.66-4.3c2.3,0,5.81,3.9,5.58,6.19-1-1.84-.89-6.16,1.17-6.64a5.83,5.83,0,0,1,5.57,2.31,17.24,17.24,0,0,1,2.65,5.73q3,9.36,6,18.72a29.33,29.33,0,0,1,1.83,8.73c0,3-1,6.12-3.43,7.92A8.88,8.88,0,0,1,70.9,64.8c-3.41-1.06-6.25-3.91-9.2-5.88C57.47,56.1,53.3,53.2,49.21,50.18Z"/><path class="cls-4" d="M96.39,90.88A15.92,15.92,0,0,1,98,97c0,2.13-1.1,4.39-3.08,5.18s-4.7-.58-4.71-2.71c1.76,3.42.12,8.3-3.53,9.53s-8.13-2.2-7.49-6a6.15,6.15,0,0,1-.54,6.52,5,5,0,0,1-6.22,1.28c-2-1.16-3-6.35-1.58-8.19,0,2.12-2.42,5.74-4.43,5.09a5.83,5.83,0,0,1-3.57-4.86,17,17,0,0,1,.68-6.27Q65.79,87,68.05,77.49A29.06,29.06,0,0,1,71,69.07c1.53-2.56,4.05-4.7,7-5a8.85,8.85,0,0,1,7.33,3.1c2.38,2.67,3.34,6.58,4.85,9.79C92.36,81.55,94.44,86.18,96.39,90.88Z"/><path class="cls-4" d="M100.64,87.68a15.78,15.78,0,0,0,5.47,3.23c2.06.56,4.53.16,5.83-1.53s.74-4.67-1.31-5.27c2.81,2.64,8,2.41,10.15-.75s.13-8.42-3.69-8.85a6.15,6.15,0,0,0,6.41,1.28,5,5,0,0,0,3-5.62c-.56-2.23-5.27-4.61-7.42-3.79,2,.54,6.18-.73,6.11-2.85a5.82,5.82,0,0,0-3.68-4.78,17.36,17.36,0,0,0-6.22-1.08l-19.63-.93a29.08,29.08,0,0,0-8.89.49c-2.89.77-5.64,2.6-6.77,5.37a8.85,8.85,0,0,0,1,7.9c1.9,3,5.39,5,8.06,7.37C92.79,81.22,96.66,84.51,100.64,87.68Z"/><path class="cls-4" d="M57.91,88a15.8,15.8,0,0,1-5.84,2.49c-2.11.29-4.51-.43-5.59-2.27s-.12-4.73,2-5.06c-3.12,2.25-8.19,1.35-10-2.06s1-8.37,4.8-8.31a6.14,6.14,0,0,1-6.52.44,5,5,0,0,1-2.19-6c.85-2.14,5.83-3.88,7.86-2.79-2.11.27-6-1.53-5.69-3.62A5.8,5.8,0,0,1,41,56.56a16.92,16.92,0,0,1,6.31-.26l19.58,1.63a28.79,28.79,0,0,1,8.76,1.64c2.76,1.14,5.25,3.31,6,6.2a8.86,8.86,0,0,1-2,7.71c-2.29,2.75-6,4.29-9,6.26C66.54,82.57,62.27,85.32,57.91,88Z"/><path class="cls-4" d="M82.19,30.5a15.75,15.75,0,0,1,2.34-5.9c1.29-1.7,3.49-2.89,5.55-2.36s3.44,3.24,2.19,5c.61-3.8,4.81-6.77,8.48-5.62s5.27,6.58,2.51,9.26a6.15,6.15,0,0,1,4.29-4.94,5,5,0,0,1,5.77,2.64c.92,2.11-1.35,6.87-3.56,7.54,1.29-1.68,5.34-3.21,6.58-1.49a5.83,5.83,0,0,1,0,6,17.31,17.31,0,0,1-4.26,4.66L97.15,58a28.83,28.83,0,0,1-7.33,5.06c-2.75,1.16-6,1.4-8.63-.1a8.86,8.86,0,0,1-4.09-6.83c-.34-3.55,1.19-7.28,1.86-10.76C79.93,40.42,81,35.45,82.19,30.5Z"/><path class="cls-5" d="M88.41,40.51a39.44,39.44,0,0,0-6.51,17.3.85.85,0,0,0,1.65.36c1-3,1.66-6.12,2.72-9.12,1-2.71,2.26-5.29,3.17-8C89.63,40.48,88.76,40,88.41,40.51Z"/><path class="cls-5" d="M66.7,41.18a39.48,39.48,0,0,0,9,16.13.84.84,0,0,0,1.34-1c-1.65-2.71-3.6-5.22-5.21-8-1.44-2.48-2.58-5.13-4.08-7.59A.6.6,0,0,0,66.7,41.18Z"/><path class="cls-5" d="M72.12,57.39c-2.5-.16-5-.22-7.48-.42-2.15-.17-4.4-.59-6.54-.23a.26.26,0,0,0-.1.48c3.84,2,10,1.9,14.2,1.73C73.23,58.91,73.09,57.46,72.12,57.39Z"/><path class="cls-5" d="M74.3,64.87c-2.64.2-4.77,1.83-7.11,3-3,1.44-6.07,2.1-9.19,3.13A.55.55,0,0,0,58.21,72C64,72,69.79,68.74,74.66,66A.59.59,0,0,0,74.3,64.87Z"/><path class="cls-5" d="M76.89,69.34c-1.39,2.12-1.65,4.75-2.15,7.2a61.3,61.3,0,0,0-1.37,7.94.5.5,0,0,0,.93.2c1.77-4.75,2.16-9.91,3.89-14.67A.73.73,0,0,0,76.89,69.34Z"/><path class="cls-5" d="M87.89,73.63a66.71,66.71,0,0,0-4.54-8c-.52-.71-1.79-.19-1.44.7a56.68,56.68,0,0,0,3.86,7.31c1.3,2.29,2.48,5,4.52,6.71.16.13.48,0,.44-.22C90.38,77.8,89,75.71,87.89,73.63Z"/><path class="cls-5" d="M101.78,70.32c-4.58-3.35-8.86-7.35-14-10a.74.74,0,0,0-.82,1.2c4.29,3.79,9.56,6.33,14.35,9.39C101.71,71.17,102.13,70.57,101.78,70.32Z"/><path class="cls-5" d="M98.87,51.58c-.91-1-4.33.86-5.25,1.29-3.16,1.45-6.26,3-9.47,4.29-1.15.48-.58,2.3.63,1.86a53.73,53.73,0,0,0,6.93-3.11c2.32-1.24,4.58-3,7.07-3.87A.28.28,0,0,0,98.87,51.58Z"/><path class="cls-2" d="M73.33,73.56a3.57,3.57,0,0,1-1.46-4.89,3.87,3.87,0,1,1-2.35-7.31,3.3,3.3,0,1,1,2.09-5.89,4.19,4.19,0,0,1,7.93-2.65,4.45,4.45,0,0,1,8.53,2.5,3.72,3.72,0,1,1,1.58,6.62,3.52,3.52,0,1,1-3.23,6.2,3.13,3.13,0,1,1-4.53,4.27,2.43,2.43,0,0,1-2.76,2.71,2.35,2.35,0,0,1-1.69-2.65A3.48,3.48,0,0,1,73.33,73.56Z"/><path class="cls-6" d="M70.32,40.81A3,3,0,1,1,67.16,38,3,3,0,0,1,70.32,40.81Z"/><path class="cls-6" d="M91.87,39.65a3,3,0,1,1-3.15-2.83A3,3,0,0,1,91.87,39.65Z"/><path class="cls-6" d="M102.69,51.08a3,3,0,1,1-3.15-2.83A3,3,0,0,1,102.69,51.08Z"/><path class="cls-6" d="M104.78,70.16a3,3,0,1,1-3.16-2.83A3,3,0,0,1,104.78,70.16Z"/><path class="cls-6" d="M94.09,81a3,3,0,1,1-3.16-2.83A3,3,0,0,1,94.09,81Z"/><path class="cls-6" d="M76.35,86.12a3,3,0,1,1-3.15-2.84A3,3,0,0,1,76.35,86.12Z"/><path class="cls-6" d="M59.35,71.42a3,3,0,1,1-3.15-2.84A3,3,0,0,1,59.35,71.42Z"/><path class="cls-6" d="M59.15,56.42A3,3,0,1,1,56,53.58,3,3,0,0,1,59.15,56.42Z"/><path class="cls-2" d="M77.75,172.62a91.45,91.45,0,0,1-34.43-18.76,89.93,89.93,0,0,1-13.16-14.14c-2-2.64-3.78-5.38-5.51-8.19s-3.11-5.83-5.14-8.36c-.3-.38-1.1-.26-1,.33.95,6.26,5.25,12.49,8.85,17.53a92.49,92.49,0,0,0,13.75,15.3A90.39,90.39,0,0,0,77,176C79.16,176.54,79.85,173.23,77.75,172.62Z"/><path class="cls-2" d="M133.61,154.08c-6.32,11-13.64,21.32-23.1,29.9a98.47,98.47,0,0,1-32.74,19.58,1.56,1.56,0,0,0,1,2.95c24.24-8.28,47.05-27.38,56.12-51.78A.71.71,0,0,0,133.61,154.08Z"/></g></g></svg>