<svg xmlns="http://www.w3.org/2000/svg" viewBox="0 0 76.9 109.33"><defs><style>.cls-1{fill:#133461;}.cls-2{fill:#a78641;}</style></defs><g id="Layer_2" data-name="Layer 2"><g id="BACKGROUND_2" data-name="BACKGROUND 2"><path class="cls-1" d="M.81,50.5a5.89,5.89,0,0,1,2.41-3.25c2.48-1.43,5.6.22,7.73,2.14a28.84,28.84,0,0,1,6.37,8.26c-2-8.55-3.94-17.7-.85-25.91.79-2.12,2.11-4.29,4.27-4.95a6.07,6.07,0,0,1,5.94,2,17.87,17.87,0,0,1,3.2,5.72,46.7,46.7,0,0,1,.79-15.19C31.4,16,32.81,12.37,35.93,11c3.52-1.52,7.67.62,10.07,3.62A28,28,0,0,1,51.22,4,10.8,10.8,0,0,1,55.57.42c4.64-1.78,9.83,2.38,11,7.2s-.36,9.85-1.91,14.56c3.24-3.47,10-2.13,11.71,2.31,1.5,4-.75,8.26-3.09,11.78a130.56,130.56,0,0,1-10.71,14A11.8,11.8,0,0,1,72.32,49a5.78,5.78,0,0,1,3.05,2c1.71,2.42.14,5.75-1.64,8.13A52,52,0,0,1,58,73.06c2.4-.8,5.81-1.17,6.74,1.19a4.25,4.25,0,0,1-.12,2.81C62.92,82.53,58,86.34,52.85,89c-13.62,7-27.59,5.66-39-4.74C6.35,77.39-2.79,60.47.81,50.5Z"/><path class="cls-2" d="M48.84,62.91a45.3,45.3,0,0,0,5.73-2.8c1.73-1,4-2,4.94-3.85a.39.39,0,0,0-.39-.55c-2,.26-3.73,1.73-5.53,2.58S49.88,60,48,60.63a62.53,62.53,0,0,1-10.51,2.45c.33-.68.68-1.37,1-2q4.66-9.57,8.87-19.34c3.12-.17,6.43-1.48,9.21-2.67,3-1.28,6.54-3.08,8.48-5.71a.5.5,0,0,0-.51-.77c-3,.88-5.83,2.72-8.79,3.87a68.77,68.77,0,0,1-7,2l1-2.33c1.71-4.13,3.36-8.29,4.9-12.49,1.65-4.5,3.51-9.06,4.47-13.75.14-.71-.87-1.42-1.28-.63-2,3.87-3.45,8.06-5.1,12.11q-2.62,6.47-5.34,12.89c-.58,1.36-1.17,2.71-1.75,4.07A47.47,47.47,0,0,1,39.56,23.9a.51.51,0,0,0-1,.08,25.12,25.12,0,0,0,5.81,17.21Q40.48,50,36.27,58.66c-.71,1.46-1.44,2.92-2.17,4.37a43.51,43.51,0,0,1-4.32-9.49c-1.15-3.8-1.43-7.72-2.42-11.54-.12-.46-.9-.6-1-.06-1.78,7.79,2.05,17.4,6.4,23.81q-3.55,7-7.34,13.88c-1.82-2.71-3.56-5.45-5.12-8.33-1.81-3.35-3.32-6.82-5.35-10a.44.44,0,0,0-.82.28c1,7.45,5.28,14.87,9.73,20.92l-.3.56C19,91.13,13.72,98.85,9.28,107a1.51,1.51,0,0,0,2.5,1.69c5.45-7.43,9.86-15.9,14.34-23.93l.54-1A41.29,41.29,0,0,0,39,83.44c3.52-.52,9.3-1.28,11.75-4.14.15-.17,0-.4-.21-.42-1.82-.23-3.61.54-5.37,1A61.87,61.87,0,0,1,39,81a64,64,0,0,1-10.89.17Q32.16,73.69,36,66.09A40.33,40.33,0,0,0,48.84,62.91Z"/></g></g></svg>