<svg xmlns="http://www.w3.org/2000/svg" viewBox="0 0 121.49 213.63"><defs><style>.cls-1{fill:#a78641;}.cls-2{fill:#133461;}</style></defs><g id="Layer_2" data-name="Layer 2"><g id="BACKGROUND_2" data-name="BACKGROUND 2"><path class="cls-1" d="M8.75,61.08c6.52,14.07,24.77,19.41,32,33.12,4.41,8.33,4,18.29,5.83,27.54,2.65,13.18,10.58,25.5,22.26,32.17s27.07,7,38.35-.32,17.25-22.48,12.78-35.16c-4.85-13.72-19.61-21.82-25.38-35.18-3.63-8.4-3.41-18.25-8-26.14-9.17-15.7-32.53-16.69-44.3-30.54C38.35,21.94,36,16.12,31.82,11.68,23.93,3.24,11.46,1.38,0,0,4.61,10.66,8.13,17.05,7.3,29.33,6.58,39.83,4.12,51.1,8.75,61.08Z"/><path class="cls-2" d="M101.47,172.7a127.82,127.82,0,0,0-5.06-40.22c-.19-.65-.39-1.3-.59-1.95,4.8-9,7.07-22.24,4.29-31.73-.14-.49-.93-.57-1,0-.42,5.48-.21,10.86-1.18,16.31a62.65,62.65,0,0,1-3.45,11.42A121.54,121.54,0,0,0,79.43,96.85c-.88-1.27-1.8-2.5-2.73-3.72a59.31,59.31,0,0,0,3.52-15.86c.49-5.15.7-11.19-1-16.12a.43.43,0,0,0-.81.13C78,66.5,78.51,71.76,78,77a79,79,0,0,1-3,13.84c-6.81-8.47-14.67-16-22.21-23.88,3-8.24,4.8-18.48,2-26.89a.67.67,0,0,0-1.26.2c0,4.44.47,8.79,0,13.24A51.19,51.19,0,0,1,50.9,65.08l-2.44-2.6a133.68,133.68,0,0,1-16.3-21.09c0-.07-.09-.15-.14-.23,1.9-6.7,3.31-14.36,1.87-21.25a.48.48,0,0,0-.94,0c-.66,6.46-.83,12.53-2.35,18.79-3.8-6.75-6.8-13.85-10-20.88a1,1,0,0,0-1.91.56,75,75,0,0,0,8.84,23.46,60.69,60.69,0,0,1-6.89-2.45c-3.38-1.47-6.44-3.65-9.84-5-.48-.18-1,.43-.62.83,4.55,4.88,12.39,7.76,19,9.36A125.33,125.33,0,0,0,37.69,57c2.89,3.66,6,7.15,9.17,10.55a38.68,38.68,0,0,1-13-.24c-5.33-1-9.72-3.42-14.6-5.59-.51-.22-1.1.49-.67.91,7.52,7.27,20.2,8.83,30.18,6.93,6.73,7.06,13.77,13.85,20.06,21.3Q70.14,92.43,71.4,94a60.92,60.92,0,0,1-11.68-.59c-4.39-.68-8.6-2.54-13-3a.5.5,0,0,0-.35.89c3.52,2.72,8.77,3.65,13.08,4.35a55.8,55.8,0,0,0,13.6.52A119.3,119.3,0,0,1,91.34,132c-2.28-.47-4.63-.69-6.9-1.18a79,79,0,0,1-10.36-3c-6.23-2.24-11.81-5.63-17.8-8.36-.72-.33-1.13.66-.63,1.12,5,4.58,11.77,7.51,18.1,9.76,5.56,2,12.3,4.21,18.33,4.09a121.15,121.15,0,0,1,4.77,31.83,121.56,121.56,0,0,1-1.63,21.8c-1.3,7.78-3.77,15-6,22.57a2.19,2.19,0,0,0,4.06,1.61C98.92,200.34,101,185.83,101.47,172.7Z"/></g></g></svg>