<svg xmlns="http://www.w3.org/2000/svg" viewBox="0 0 89.47 116.69"><defs><style>.cls-1{fill:#768fc7;}.cls-2{fill:#133461;}</style></defs><g id="Layer_2" data-name="Layer 2"><g id="BACKGROUND_2" data-name="BACKGROUND 2"><path class="cls-1" d="M20.44,92.27a7,7,0,0,1-2-4.31c0-3.36,3.42-5.62,6.6-6.7a33.74,33.74,0,0,1,12.08-1.81c-9.88-2.84-20.36-6-27-13.89C8.44,63.54,7,61,7.52,58.36s2.91-4.31,5.4-5a20.81,20.81,0,0,1,7.67,0A54.58,54.58,0,0,1,5.5,43.92C2.52,41.29-.36,37.79,0,33.84c.45-4.47,5-7.5,9.43-8.25A32.74,32.74,0,0,1,1.55,14.17,12.6,12.6,0,0,1,.37,7.69C1.2,1.93,8.41-1,14,.5s9.88,6,13.82,10.25c-1.7-5.3,3.52-11.48,9-10.68,4.9.71,8,5.47,10.31,9.87a153.14,153.14,0,0,1,8.19,18.93,13.79,13.79,0,0,1,4.28-10.64,6.8,6.8,0,0,1,3.77-2c3.45-.37,6,3.14,7.39,6.31a61,61,0,0,1,5.29,24c.56-2.91,2.12-6.61,5.06-6.22A5,5,0,0,1,84,42.08c4.63,4.87,5.7,12.12,5.47,18.83-.62,17.91-9.93,31.47-27.09,37.23C51.12,101.92,28.6,101.64,20.44,92.27Z"/><path class="cls-2" d="M60.51,50.17a52.91,52.91,0,0,0,.39-7.45c0-2.35.17-5.21-1.12-7.25a.45.45,0,0,0-.78.08c-.88,2.19-.37,4.8-.52,7.13a70,70,0,0,1-.8,7.08A72.43,72.43,0,0,1,54.2,61.92L52.68,59.7Q45.54,49.49,37.94,39.61c1.6-3.29,2.16-7.43,2.51-11,.38-3.74.58-8.44-1-11.93a.59.59,0,0,0-1.08.09c-.83,3.61-.53,7.52-1,11.2a78.14,78.14,0,0,1-2,8.3c-.6-.78-1.2-1.56-1.81-2.33-3.26-4.11-6.57-8.18-10-12.15C19.89,17.59,16.28,13.08,12,9.43c-.65-.55-1.95.08-1.37,1,2.81,4.28,6.28,8.12,9.49,12.12C23.55,26.75,27,31,30.3,35.31c1.06,1.36,2.1,2.74,3.15,4.11a55.41,55.41,0,0,1-18.16-2,.6.6,0,0,0-.5,1.08,29.46,29.46,0,0,0,20.93,3.86q6.81,9,13.28,18.24c1.09,1.56,2.16,3.13,3.23,4.7a50.46,50.46,0,0,1-12.18-1c-4.54-1-8.72-2.93-13.18-4.1-.55-.14-1.13.58-.64,1,7,6.26,19,7.81,28,7q5.15,7.64,10,15.42c-3.81.32-7.62.54-11.45.49C48.36,84.13,44,83.7,39.5,84a.51.51,0,0,0-.18,1c8.17,3.26,18.23,3.06,27,2l.39.63c5.72,9.26,10.62,19.06,16.42,28.25a1.77,1.77,0,0,0,3.15-1.61c-4.49-9.8-10.65-19.14-16.32-28.3-.24-.38-.48-.75-.71-1.13,3-3.74,5.05-8.45,6.71-12.83,1.48-3.89,4-10.24,2.46-14.38-.09-.25-.42-.2-.55,0-1.27,1.73-1.5,4-2.07,6.05a69.77,69.77,0,0,1-2.37,7,74.7,74.7,0,0,1-6,11.24q-5.31-8.41-10.92-16.66A47.29,47.29,0,0,0,60.51,50.17Z"/></g></g></svg>