<svg xmlns="http://www.w3.org/2000/svg" viewBox="0 0 123.08 120.26"><defs><style>.cls-1{fill:#f9b7a7;}.cls-2{fill:#db5021;}.cls-3{fill:#f5d60a;}.cls-4{fill:#133461;}.cls-5{fill:#fff;}</style></defs><g id="Layer_2" data-name="Layer 2"><g id="BACKGROUND_2" data-name="BACKGROUND 2"><path class="cls-1" d="M35.15,26.17c-1-2.71-1.91-5.51-1.73-8.37S35.19,12,37.91,11s6.26,1.09,6.14,4c-2.14-4.71.39-11.16,5.37-12.58S60.2,5.91,59.09,11a8.29,8.29,0,0,1,1.16-8.72A6.77,6.77,0,0,1,68.69.94c2.6,1.69,3.56,8.72,1.58,11.11.2-2.85,3.63-7.55,6.3-6.54s4.22,3.92,4.48,6.76-.55,5.65-1.34,8.39Q76,33.35,72.34,46.05c-1.12,3.85-2.27,7.78-4.5,11.11s-5.77,6.05-9.78,6.27a11.9,11.9,0,0,1-9.64-4.66c-3-3.74-4.06-9.06-5.87-13.47C39.94,39,37.45,32.61,35.15,26.17Z"/><path class="cls-1" d="M57.31,107c-.57,2.82-1.21,5.71-2.84,8.06s-4.53,4.08-7.33,3.48-4.8-4.17-3.22-6.56c-.6,5.13-6.1,9.35-11.09,8s-7.44-8.56-3.87-12.31a8.29,8.29,0,0,1-5.5,6.87,6.77,6.77,0,0,1-7.9-3.24C14.21,108.53,17,102,19.93,101c-1.64,2.33-7,4.6-8.76,2.36s-1.6-5.54-.35-8.1,3.38-4.57,5.48-6.5l19.41-18c2.95-2.72,6-5.49,9.59-7.19s8.06-2.21,11.61-.33a11.94,11.94,0,0,1,5.86,9c.65,4.75-1.21,9.85-1.93,14.56C59.81,93.57,58.66,100.32,57.31,107Z"/><path class="cls-1" d="M64.46,106.64c.86,2.73,1.8,5.54,3.68,7.71s4.94,3.57,7.66,2.67,4.33-4.66,2.5-6.87c1.15,5,7.06,8.65,11.89,6.77s6.47-9.3,2.53-12.65a8.26,8.26,0,0,0,6.2,6.24,6.78,6.78,0,0,0,7.51-4.06c1-2.92-2.44-9.1-5.46-9.8,1.88,2.14,7.46,3.82,9,1.4s1-5.68-.52-8.09-3.85-4.18-6.14-5.88L82.06,68.31c-3.22-2.39-6.51-4.82-10.31-6.12s-8.25-1.33-11.58.91a12,12,0,0,0-4.86,9.55c-.14,4.8,2.25,9.67,3.47,14.27C60.53,93.54,62.4,100.11,64.46,106.64Z"/><path class="cls-1" d="M16.54,74.88c-2.87-.14-5.82-.34-8.4-1.6s-4.7-3.87-4.53-6.73,3.41-5.37,6-4.16C4.45,62.56-.54,57.75.05,52.61S7.4,44,11.64,46.94A8.27,8.27,0,0,1,4,42.54a6.78,6.78,0,0,1,2-8.3c2.55-1.75,9.42,0,10.86,2.78-2.55-1.27-5.59-6.24-3.63-8.31s5.23-2.41,8-1.56,5,2.67,7.24,4.45L49.13,48.11c3.13,2.51,6.32,5.07,8.54,8.41S61.06,64.16,59.73,68a11.92,11.92,0,0,1-8,7.13c-4.61,1.36-9.92.28-14.69.27C30.21,75.34,23.37,75.21,16.54,74.88Z"/><path class="cls-1" d="M86.75,28.94c2.12-1.94,4.34-3.9,7-4.84s6.06-.61,8,1.53,1.41,6.2-1.28,7.19c3.52-3.79,10.45-3.95,13.68.09s1,11.3-4.14,12.22a8.29,8.29,0,0,1,8.49-2.3A6.78,6.78,0,0,1,123,50.11c-.56,3-6.67,6.66-9.63,5.75,2.7-.91,8.37.43,8.46,3.28s-2,5.41-4.5,6.75-5.42,1.68-8.25,2l-26.27,3c-4,.46-8,.92-12,.15s-7.8-3-9.56-6.59a11.91,11.91,0,0,1,.56-10.69C64.09,49.56,68.6,46.54,72,43.17,76.79,38.32,81.7,33.55,86.75,28.94Z"/><path class="cls-2" d="M29.79,50.18a15.88,15.88,0,0,1-4.54-4.44c-1.07-1.85-1.32-4.34,0-6s4.32-1.92,5.43-.09c-3.27-2-4.38-7.06-1.9-10s8.1-2.32,9.51,1.26A6.16,6.16,0,0,1,35.36,25,5,5,0,0,1,40,20.72c2.3,0,5.81,3.9,5.57,6.19-1.05-1.84-.89-6.16,1.18-6.64a5.82,5.82,0,0,1,5.56,2.31A17,17,0,0,1,55,28.31Q58,37.67,61,47a29,29,0,0,1,1.83,8.73c0,3-1,6.12-3.43,7.92a8.86,8.86,0,0,1-7.88,1.12c-3.41-1.06-6.26-3.91-9.2-5.88C38.06,56.1,33.88,53.2,29.79,50.18Z"/><path class="cls-2" d="M77,90.88A15.75,15.75,0,0,1,78.56,97c0,2.13-1.1,4.39-3.08,5.18s-4.69-.58-4.7-2.71c1.75,3.42.11,8.3-3.53,9.53s-8.13-2.2-7.49-6a6.15,6.15,0,0,1-.55,6.52A5,5,0,0,1,53,110.84c-2-1.16-3-6.35-1.58-8.19-.05,2.12-2.42,5.74-4.44,5.09a5.83,5.83,0,0,1-3.57-4.86,17.18,17.18,0,0,1,.69-6.27l4.53-19.12a29.06,29.06,0,0,1,2.94-8.42c1.54-2.56,4.06-4.7,7-5a8.87,8.87,0,0,1,7.33,3.1c2.37,2.67,3.34,6.58,4.85,9.79C72.94,81.55,75,86.18,77,90.88Z"/><path class="cls-2" d="M81.23,87.68a15.65,15.65,0,0,0,5.46,3.23c2.06.56,4.53.16,5.84-1.53s.73-4.67-1.31-5.27c2.8,2.64,7.94,2.41,10.14-.75s.14-8.42-3.68-8.85a6.15,6.15,0,0,0,6.41,1.28,5,5,0,0,0,3-5.62c-.57-2.23-5.28-4.61-7.43-3.79,2,.54,6.18-.73,6.11-2.85a5.83,5.83,0,0,0-3.67-4.78,17.44,17.44,0,0,0-6.22-1.08L76.2,56.74a29.14,29.14,0,0,0-8.9.49c-2.88.77-5.64,2.6-6.76,5.37a8.85,8.85,0,0,0,1,7.9c1.9,3,5.4,5,8.06,7.37C73.37,81.22,77.25,84.51,81.23,87.68Z"/><path class="cls-2" d="M38.5,88a15.87,15.87,0,0,1-5.84,2.49c-2.12.29-4.51-.43-5.59-2.27s-.12-4.73,2-5.06c-3.12,2.25-8.19,1.35-9.95-2.06s.95-8.37,4.8-8.31a6.14,6.14,0,0,1-6.52.44,5,5,0,0,1-2.2-6C16,65.09,21,63.35,23,64.44c-2.1.27-6-1.53-5.69-3.62a5.82,5.82,0,0,1,4.26-4.26,16.92,16.92,0,0,1,6.31-.26l19.59,1.63a28.85,28.85,0,0,1,8.76,1.64c2.75,1.14,5.25,3.31,6,6.2a8.86,8.86,0,0,1-2,7.71c-2.28,2.75-6,4.29-8.95,6.26C47.12,82.57,42.85,85.32,38.5,88Z"/><path class="cls-2" d="M62.77,30.5a15.77,15.77,0,0,1,2.35-5.9c1.28-1.7,3.48-2.89,5.55-2.36s3.44,3.24,2.19,5c.6-3.8,4.81-6.77,8.48-5.62s5.26,6.58,2.51,9.26a6.14,6.14,0,0,1,4.28-4.94,5,5,0,0,1,5.77,2.64c.92,2.11-1.35,6.87-3.55,7.54,1.29-1.68,5.34-3.21,6.58-1.49a5.83,5.83,0,0,1,0,6,17.31,17.31,0,0,1-4.26,4.66L77.74,58A28.88,28.88,0,0,1,70.4,63.1c-2.75,1.16-6.05,1.4-8.63-.1a8.85,8.85,0,0,1-4.08-6.83c-.35-3.55,1.18-7.28,1.86-10.76C60.52,40.42,61.57,35.45,62.77,30.5Z"/><path class="cls-3" d="M69,40.51a39.32,39.32,0,0,0-6.51,17.3.85.85,0,0,0,1.65.36c1-3,1.65-6.12,2.72-9.12,1-2.71,2.25-5.29,3.17-8A.6.6,0,0,0,69,40.51Z"/><path class="cls-3" d="M47.28,41.18a39.39,39.39,0,0,0,9,16.13.84.84,0,0,0,1.34-1c-1.66-2.71-3.61-5.22-5.21-8-1.45-2.48-2.59-5.13-4.08-7.59A.6.6,0,0,0,47.28,41.18Z"/><path class="cls-3" d="M52.7,57.39c-2.49-.16-5-.22-7.48-.42-2.15-.17-4.4-.59-6.54-.23a.26.26,0,0,0-.1.48c3.84,2,10,1.9,14.2,1.73C53.81,58.91,53.67,57.46,52.7,57.39Z"/><path class="cls-3" d="M54.89,64.87c-2.64.2-4.78,1.83-7.11,3-3,1.44-6.08,2.1-9.19,3.13a.55.55,0,0,0,.2,1.07c5.77,0,11.59-3.29,16.45-6.08A.59.59,0,0,0,54.89,64.87Z"/><path class="cls-3" d="M57.47,69.34c-1.39,2.12-1.65,4.75-2.15,7.2A61.3,61.3,0,0,0,54,84.48c0,.47.77.64.93.2C56.65,79.93,57,74.77,58.77,70A.73.73,0,0,0,57.47,69.34Z"/><path class="cls-3" d="M68.47,73.63a66.71,66.71,0,0,0-4.54-8c-.52-.71-1.79-.19-1.44.7a58,58,0,0,0,3.86,7.31c1.3,2.29,2.49,5,4.52,6.71.16.13.48,0,.45-.22C71,77.8,69.58,75.71,68.47,73.63Z"/><path class="cls-3" d="M82.37,70.32c-4.59-3.35-8.86-7.35-14-10a.74.74,0,0,0-.82,1.2c4.28,3.79,9.55,6.33,14.34,9.39C82.3,71.17,82.71,70.57,82.37,70.32Z"/><path class="cls-3" d="M79.46,51.58c-.92-1-4.34.86-5.26,1.29-3.15,1.45-6.26,3-9.46,4.29-1.16.48-.58,2.3.62,1.86a53.25,53.25,0,0,0,6.94-3.11c2.31-1.24,4.58-3,7.06-3.87A.28.28,0,0,0,79.46,51.58Z"/><path class="cls-4" d="M53.91,73.56a3.56,3.56,0,0,1-1.45-4.89,3.87,3.87,0,1,1-2.36-7.31,3.3,3.3,0,1,1,2.1-5.89,4.19,4.19,0,0,1,7.93-2.65,4.45,4.45,0,0,1,8.53,2.5,3.72,3.72,0,1,1,1.57,6.62A3.52,3.52,0,1,1,67,68.14a3.13,3.13,0,1,1-4.53,4.27,2.44,2.44,0,0,1-2.76,2.71A2.34,2.34,0,0,1,58,72.47,3.49,3.49,0,0,1,53.91,73.56Z"/><path class="cls-5" d="M50.9,40.81A3,3,0,1,1,47.75,38,3,3,0,0,1,50.9,40.81Z"/><path class="cls-5" d="M72.46,39.65a3,3,0,1,1-3.16-2.83A3,3,0,0,1,72.46,39.65Z"/><path class="cls-5" d="M83.28,51.08a3,3,0,1,1-3.16-2.83A3,3,0,0,1,83.28,51.08Z"/><path class="cls-5" d="M85.36,70.16a3,3,0,1,1-3.15-2.83A3,3,0,0,1,85.36,70.16Z"/><path class="cls-5" d="M74.67,81a3,3,0,1,1-3.15-2.83A3,3,0,0,1,74.67,81Z"/><path class="cls-5" d="M56.94,86.12a3,3,0,1,1-3.16-2.84A3,3,0,0,1,56.94,86.12Z"/><path class="cls-5" d="M39.94,71.42a3,3,0,1,1-3.16-2.84A3,3,0,0,1,39.94,71.42Z"/><path class="cls-5" d="M39.73,56.42a3,3,0,1,1-3.15-2.84A3,3,0,0,1,39.73,56.42Z"/></g></g></svg>