<svg xmlns="http://www.w3.org/2000/svg" viewBox="0 0 122.44 120.19"><defs><style>.cls-1{fill:#db5021;}.cls-2{fill:#f9b7a7;}.cls-3{fill:#133461;}.cls-4{fill:#fff;}.cls-5{fill:#ff6d40;}.cls-6{fill:#768fc7;}</style></defs><g id="Layer_2" data-name="Layer 2"><g id="BACKGROUND_2" data-name="BACKGROUND 2"><path class="cls-1" d="M69.62,28.66a39.92,39.92,0,0,0,1.15-12.77,19.24,19.24,0,0,0-5-11.59A14.42,14.42,0,0,0,54.73,0C52.1.2,49.56,1.14,46.94,1.46c-2.46.3-5,.06-7.39.54a24.91,24.91,0,0,0-7.7,3.5c-3.35,2-6.86,4.18-8.69,7.63a14.11,14.11,0,0,0-.6,10.65,34.14,34.14,0,0,0,5.17,9.59,131.83,131.83,0,0,0,14.4,17.06c3.49,3.5,7.51,7,12.42,7.57,1.93.23,4.47-.12,5.88-1.61,1-1.1,1-3.2,1.57-4.6,1.92-4.86,3.78-9.74,5.34-14.73C68.21,34.29,69,31.49,69.62,28.66Z"/><path class="cls-1" d="M28.66,42.73a39.91,39.91,0,0,0-12.77-1.14,19.24,19.24,0,0,0-11.59,5A14.41,14.41,0,0,0,0,57.62c.17,2.64,1.11,5.17,1.43,7.8.3,2.45.06,5,.54,7.39a24.91,24.91,0,0,0,3.5,7.7c2,3.35,4.18,6.85,7.63,8.68a14.16,14.16,0,0,0,10.65.61,34.66,34.66,0,0,0,9.59-5.17,131.83,131.83,0,0,0,17.06-14.4c3.5-3.5,7-7.52,7.57-12.42.23-1.93-.12-4.47-1.61-5.88-1.1-1-3.2-1-4.6-1.58-4.86-1.91-9.74-3.77-14.73-5.34C34.29,44.14,31.49,43.37,28.66,42.73Z"/><path class="cls-1" d="M36.57,84.17a39.84,39.84,0,0,0-5.73,11.48,19.12,19.12,0,0,0,.47,12.63,14.39,14.39,0,0,0,8.66,8c2.52.8,5.22.85,7.78,1.51,2.4.62,4.65,1.76,7.08,2.2a25.09,25.09,0,0,0,8.45-.45c3.85-.64,7.9-1.38,10.87-3.93a14.14,14.14,0,0,0,4.45-9.69,34.54,34.54,0,0,0-1.31-10.82A131.26,131.26,0,0,0,70.11,74c-2-4.53-4.45-9.24-8.8-11.58-1.71-.92-4.2-1.52-6.06-.65-1.37.64-2.12,2.6-3.14,3.7C48.55,69.25,45,73.11,41.76,77.18,39.94,79.45,38.19,81.77,36.57,84.17Z"/><path class="cls-1" d="M78.57,89.57a40,40,0,0,0,8.48,9.61,19.15,19.15,0,0,0,11.88,4.31,14.44,14.44,0,0,0,10.66-5c1.69-2,2.75-4.52,4.32-6.65s3.38-3.64,4.7-5.73a25.24,25.24,0,0,0,2.76-8c.84-3.81,1.68-7.85.43-11.55a14.13,14.13,0,0,0-7.31-7.76A34.34,34.34,0,0,0,104,55.92a130.88,130.88,0,0,0-22.29-1.28c-4.94.12-10.23.65-14,3.81-1.49,1.24-3,3.32-2.87,5.37.08,1.51,1.61,2.94,2.25,4.3,2.21,4.74,4.47,9.45,7,14C75.45,84.67,77,87.16,78.57,89.57Z"/><path class="cls-1" d="M96,57.93a40.1,40.1,0,0,0,11.77-5.11,19.23,19.23,0,0,0,7.75-10A14.41,14.41,0,0,0,114,31.15c-1.41-2.24-3.45-4-5-6.16s-2.43-4.33-4-6.23a24.9,24.9,0,0,0-6.76-5.08c-3.36-2-7-4-10.86-4a14.23,14.23,0,0,0-9.64,4.57,34.31,34.31,0,0,0-5.94,9.14,131,131,0,0,0-8.08,20.81c-1.4,4.74-2.53,9.93-.7,14.53.72,1.8,2.25,3.86,4.23,4.39,1.46.38,3.3-.64,4.79-.82C77.18,61.67,82.36,61,87.49,60,90.33,59.39,93.16,58.73,96,57.93Z"/><path class="cls-2" d="M53.75,38.38a28.61,28.61,0,0,0-4.35-8.16,13.76,13.76,0,0,0-7.61-5A10.38,10.38,0,0,0,33.47,27c-1.53,1.15-2.68,2.71-4.14,3.94s-3,2-4.25,3.24a18.07,18.07,0,0,0-3.28,5.15c-1.23,2.53-2.49,5.22-2.24,8A10.24,10.24,0,0,0,23.39,54a24.77,24.77,0,0,0,6.91,3.76,95,95,0,0,0,15.42,4.62C49.21,63.1,53,63.62,56.2,62a5.19,5.19,0,0,0,2.92-3.29c.19-1.07-.64-2.33-.86-3.39-.76-3.69-1.56-7.38-2.58-11C55.12,42.34,54.48,40.34,53.75,38.38Z"/><path class="cls-2" d="M34.55,63a28.8,28.8,0,0,0-8.17,4.35,13.8,13.8,0,0,0-5,7.61,10.38,10.38,0,0,0,1.74,8.32c1.15,1.53,2.71,2.68,3.94,4.14s2,3,3.24,4.25A18.07,18.07,0,0,0,35.45,95c2.53,1.23,5.22,2.49,8,2.24a10.24,10.24,0,0,0,6.67-3.83,24.77,24.77,0,0,0,3.76-6.91,95,95,0,0,0,4.62-15.42c.74-3.49,1.26-7.29-.32-10.48a5.21,5.21,0,0,0-3.29-2.92c-1.07-.19-2.33.64-3.39.86-3.69.76-7.38,1.56-11,2.58C38.51,61.66,36.51,62.29,34.55,63Z"/><path class="cls-2" d="M55.66,84.94a28.45,28.45,0,0,0,1.06,9.19A13.84,13.84,0,0,0,62,101.57,10.36,10.36,0,0,0,70.36,103c1.84-.5,3.49-1.54,5.3-2.15s3.5-.77,5.14-1.46a17.82,17.82,0,0,0,4.92-3.6c2.07-1.91,4.23-4,5-6.66a10.2,10.2,0,0,0-1.13-7.61,24.67,24.67,0,0,0-5.06-6,95,95,0,0,0-12.66-9.94c-3-2-6.33-3.82-9.88-3.52a5.21,5.21,0,0,0-3.92,2c-.57.93-.25,2.41-.43,3.48C57,71.2,56.41,74.92,56,78.67,55.83,80.75,55.69,82.85,55.66,84.94Z"/><path class="cls-2" d="M83.15,71.65a28.77,28.77,0,0,0,8.91,2.46A13.86,13.86,0,0,0,100.94,72a10.41,10.41,0,0,0,4.45-7.24c.22-1.9-.12-3.81,0-5.72s.61-3.53.58-5.31a18.4,18.4,0,0,0-1.48-5.92c-1-2.63-2.08-5.4-4.29-7.15a10.18,10.18,0,0,0-7.48-1.8,24.64,24.64,0,0,0-7.48,2.42,95.77,95.77,0,0,0-14,8c-2.93,2-5.92,4.43-7,7.83a5.17,5.17,0,0,0,.38,4.38c.64.88,2.13,1.14,3.06,1.71,3.2,2,6.42,3.95,9.75,5.7C79.34,69.91,81.22,70.83,83.15,71.65Z"/><path class="cls-2" d="M81.19,45.69A29.06,29.06,0,0,0,86.27,38,13.74,13.74,0,0,0,87,28.88a10.38,10.38,0,0,0-5.51-6.47c-1.74-.79-3.67-1.06-5.44-1.75S72.89,19,71.19,18.48a17.78,17.78,0,0,0-6.09-.41c-2.81.13-5.78.31-8.12,1.88a10.16,10.16,0,0,0-4,6.56,25,25,0,0,0,0,7.86,95.31,95.31,0,0,0,3.33,15.75c1,3.42,2.39,7,5.3,9.05a5.21,5.21,0,0,0,4.28,1c1-.35,1.75-1.69,2.57-2.39,2.88-2.43,5.73-4.89,8.43-7.53C78.37,48.78,79.81,47.27,81.19,45.69Z"/><path class="cls-3" d="M58.16,39.87a6.1,6.1,0,0,1,5.28,7.8c.66-3.44,5.33-5.14,8.29-3.27s3.67,6.31,1.82,9.28a5.31,5.31,0,0,1,7.65,3.44,5.31,5.31,0,0,1-6.11,5.76,5.49,5.49,0,1,1-7.37,7.85,5.68,5.68,0,1,1-11.16,1.93,5.06,5.06,0,1,1-9.27-3.56c-2.69,1.55-6.69.77-8.1-2s1-6.83,4.06-6.45A4.33,4.33,0,1,1,46,52.5a4.2,4.2,0,0,1-1.17-6.57c2.22-2.1,7-.73,7-.73S53.79,39.74,58.16,39.87Z"/><path class="cls-4" d="M63.57,28.64c-.18-.51-1-.48-1.09.09-.43,5-.53,9.91-1.42,14.84s-2.63,9.84-3.51,14.84c-.27,1.59,2.15,2.46,2.77.89C63.89,50.32,66.79,38.07,63.57,28.64Z"/><path class="cls-4" d="M57.85,57.67a72.18,72.18,0,0,0-6.78-15.85c-2-3.44-4.6-6.77-8.6-7.74-.7-.17-.95.72-.54,1.15,6.71,6.94,8.26,15.86,13,24C56,60.92,58.32,59.37,57.85,57.67Z"/><path class="cls-4" d="M54.35,59c-3.55-2.91-8.5-4.43-12.83-5.84-4-1.3-8.07-2.49-12.28-2.43-.81,0-.92,1.18-.26,1.51,4,2,8.54,3.1,12.76,4.72,3.82,1.46,7.44,3.64,11.4,4.63A1.49,1.49,0,0,0,54.35,59Z"/><path class="cls-4" d="M50.61,62.19c-4.2,1-8.32,3.37-12,5.55-2.84,1.68-7.22,3.82-8.21,7.17-.13.44.33.79.71.77,3.2-.14,6.25-3.23,9-4.81,3.77-2.21,7.85-3.61,11.71-5.6A1.64,1.64,0,0,0,50.61,62.19Z"/><path class="cls-4" d="M58.69,61.77c-2.52,3.5-3.93,7.76-5.57,11.72s-3.49,7.94-4.46,12.13c-.23,1,1.22,1.71,1.81.85,2.41-3.54,4.08-7.56,5.87-11.45s4-7.85,4.86-12.07C61.48,61.61,59.53,60.59,58.69,61.77Z"/><path class="cls-4" d="M68.68,74.57A130.59,130.59,0,0,0,66,61.37c-.57-1.94-3.54-1.17-3.39.77.4,4.94,1.61,9.89,2.55,14.76.84,4.34,1.57,8.88,3.26,13a1.1,1.1,0,0,0,2.11-.48C70.69,84.44,69.57,79.43,68.68,74.57Z"/><path class="cls-4" d="M86.37,74.43c-1.8-3.19-5.32-5.64-8-8.05-2.93-2.62-5.9-5.65-9.4-7.48-1.39-.73-3,1.13-2,2.38C69.45,64.34,73,66.62,76.16,69c2.94,2.17,6.06,5.12,9.56,6.24A.52.52,0,0,0,86.37,74.43Z"/><path class="cls-4" d="M93.2,51.76c-3.46-.16-7,1.17-10.3,2-4.16,1-8.85,1.45-12.75,3.19a1.58,1.58,0,0,0,.7,3c3.84.13,8.13-1.4,11.78-2.5s7.92-2.14,10.8-4.65C93.76,52.54,93.77,51.78,93.2,51.76Z"/><path class="cls-4" d="M78.49,39.7c-2.76,2.64-5.21,5.63-7.83,8.41-2.35,2.5-5,4.88-6.76,7.86-.55,1,.7,1.72,1.49,1.26,3-1.75,5.33-4.59,7.68-7.07a105.14,105.14,0,0,0,7.69-8.53A1.49,1.49,0,0,0,78.49,39.7Z"/><path class="cls-5" d="M66.72,31.56a3.44,3.44,0,1,1-2.79-4A3.45,3.45,0,0,1,66.72,31.56Z"/><path class="cls-5" d="M82.48,41.33a3.44,3.44,0,1,1-2.79-4A3.45,3.45,0,0,1,82.48,41.33Z"/><path class="cls-5" d="M96,54.2a3.45,3.45,0,1,1-2.8-4A3.45,3.45,0,0,1,96,54.2Z"/><path class="cls-5" d="M89,74a3.44,3.44,0,1,1-2.79-4A3.44,3.44,0,0,1,89,74Z"/><circle class="cls-5" cx="70.41" cy="89.91" r="3.44" transform="matrix(0.86, -0.51, 0.51, 0.86, -35.92, 48.26)"/><path class="cls-5" d="M49.2,89.65a3.44,3.44,0,1,1,4.2-2.47A3.43,3.43,0,0,1,49.2,89.65Z"/><path class="cls-5" d="M34.35,75.71a3.44,3.44,0,1,1-3.67-3.2A3.44,3.44,0,0,1,34.35,75.71Z"/><path class="cls-5" d="M31.75,50.77a3.44,3.44,0,1,1-3.67-3.2A3.45,3.45,0,0,1,31.75,50.77Z"/><path class="cls-5" d="M46.92,34.21A3.45,3.45,0,1,1,43.24,31,3.45,3.45,0,0,1,46.92,34.21Z"/><path class="cls-6" d="M58.77,45.93a4.18,4.18,0,0,1,3.63,5.36c.46-2.36,3.68-3.53,5.71-2.25a4.8,4.8,0,0,1,1.25,6.39,3.47,3.47,0,1,1,1.06,6.33,3.77,3.77,0,1,1-5.07,5.4,3.91,3.91,0,1,1-7.68,1.32A3.47,3.47,0,1,1,51.3,66c-1.86,1.07-4.61.53-5.58-1.38s.67-4.7,2.8-4.45a3,3,0,1,1,1.87-5.59,2.89,2.89,0,0,1-.81-4.53c1.53-1.44,4.81-.5,4.81-.5S55.77,45.84,58.77,45.93Z"/></g></g></svg>