<svg xmlns="http://www.w3.org/2000/svg" viewBox="0 0 79.75 69.8"><defs><style>.cls-1{fill:#a78641;}.cls-2{fill:#133461;}</style></defs><g id="Layer_2" data-name="Layer 2"><g id="BACKGROUND_2" data-name="BACKGROUND 2"><path class="cls-1" d="M74.47,47.5c-5.26-.51-10.09-1-15-3.15a33.45,33.45,0,0,1-11.29-8.07,54.61,54.61,0,0,0,25.49-5.11,1.41,1.41,0,0,0-1.13-2.58,51.15,51.15,0,0,1-22.25,4.83c.14-.12.28-.24.41-.37,5-4.51,10.4-9.17,14.42-14.59.46-.62-.37-1.34-1-.9-5.36,4-10.1,9-15.12,13.46-.47.42-1,.83-1.43,1.24a62.35,62.35,0,0,1,2.52-11c.67-2,1.46-4,2.28-6,.75-1.77,2-3.61,2.12-5.55,0-.3-.32-.64-.63-.45-3.28,1.95-5.17,7.52-6.45,11a52.38,52.38,0,0,0-2.75,11.4c-5-8-6-17.25-4.73-26.63a.68.68,0,0,0-1.3-.31c-4,10-1.33,22.37,5,30.95q-5,4.25-10.15,8.32-7.72,6.12-15.75,11.82-4.14,2.93-8.36,5.74C6.43,63.51,3.1,65.21.45,67.52a1.29,1.29,0,0,0,1.32,2.17c2.82-1.19,5.39-3.18,7.94-4.87q4.48-3,8.87-6,8.54-6,16.7-12.53c3.41-2.73,6.75-5.55,10-8.42,6.87,7.87,18.66,13.82,29.2,12A1.19,1.19,0,0,0,74.47,47.5Z"/><path class="cls-2" d="M42.82,8.62a4.85,4.85,0,1,1,.7-6.83A4.86,4.86,0,0,1,42.82,8.62Z"/><path class="cls-2" d="M57.59,13.55a4.85,4.85,0,1,1,.7-6.83A4.86,4.86,0,0,1,57.59,13.55Z"/><path class="cls-2" d="M68.42,22.28a4.85,4.85,0,1,1,.7-6.83A4.87,4.87,0,0,1,68.42,22.28Z"/><path class="cls-2" d="M77.33,33.71a4.85,4.85,0,1,1,.7-6.82A4.86,4.86,0,0,1,77.33,33.71Z"/><path class="cls-2" d="M78,52.75a4.85,4.85,0,1,1,.7-6.83A4.85,4.85,0,0,1,78,52.75Z"/></g></g></svg>